<svg xmlns="http://www.w3.org/2000/svg" width="800" height="500" viewBox="0 0 800 500"><rect width="800" height="500" fill="#0c0c0c"/><rect x="40" y="40" width="720" height="44" rx="6" fill="#141414"/><rect x="56" y="56" width="100" height="12" rx="3" fill="#2a2a2a"/><rect x="660" y="52" width="80" height="20" rx="4" fill="#1a1a24"/><rect x="40" y="110" width="720" height="32" rx="0" fill="#111"/><rect x="56" y="120" width="80" height="12" rx="2" fill="#222"/><rect x="220" y="120" width="100" height="12" rx="2" fill="#222"/><rect x="400" y="120" width="80" height="12" rx="2" fill="#222"/><rect x="600" y="120" width="120" height="12" rx="2" fill="#222"/><rect x="40" y="144" width="720" height="28" rx="0" fill="#0e0e0e"/><rect x="56" y="154" width="100" height="8" rx="2" fill="#1e1e1e"/><rect x="220" y="154" width="80" height="8" rx="2" fill="#1e1e1e"/><rect x="400" y="154" width="60" height="8" rx="2" fill="#1e1e2e" opacity="0.8"/><rect x="600" y="150" width="120" height="16" rx="3" fill="#1a1a28" opacity="0.7"/><rect x="40" y="174" width="720" height="28" rx="0" fill="#111"/><rect x="56" y="184" width="120" height="8" rx="2" fill="#1e1e1e"/><rect x="220" y="184" width="60" height="8" rx="2" fill="#1e1e1e"/><rect x="40" y="224" width="480" height="100" rx="8" fill="#0f0f0f"/><rect x="56" y="240" width="120" height="10" rx="2" fill="#242424"/><rect x="56" y="260" width="400" height="8" rx="2" fill="#1a1a1a"/><rect x="56" y="276" width="320" height="8" rx="2" fill="#181818"/><rect x="56" y="292" width="360" height="8" rx="2" fill="#1a1a1a"/><rect x="544" y="224" width="216" height="100" rx="8" fill="#101014"/><rect x="560" y="240" width="80" height="10" rx="2" fill="#1e1e28"/><rect x="560" y="260" width="160" height="6" rx="2" fill="#181818"/><rect x="560" y="274" width="140" height="6" rx="2" fill="#1a1a1a"/><text x="400" y="420" text-anchor="middle" fill="#3a3a3a" font-family="monospace" font-size="13">globacap  ·  capital markets</text></svg>
