<svg viewBox="0 0 30 24" xmlns="http://www.w3.org/2000/svg"><path d="M 1.165 0.413 L 2.564 0.413 C 2.615 0.412 2.665 0.431 2.703 0.466 C 2.739 0.501 2.758 0.549 2.757 0.599 L 2.757 23.777 C 2.757 23.825 2.738 23.873 2.701 23.908 C 2.664 23.942 2.615 23.962 2.564 23.962 L 1.165 23.962 C 1.114 23.962 1.065 23.942 1.028 23.908 C 0.991 23.874 0.971 23.826 0.97 23.777 L 0.97 0.617 C 0.969 0.568 0.989 0.52 1.026 0.486 C 1.063 0.45 1.113 0.431 1.165 0.433 Z M 4.497 2.925 L 5.896 2.925 C 5.948 2.925 5.997 2.944 6.033 2.979 C 6.069 3.013 6.09 3.06 6.09 3.11 L 6.09 21.116 C 6.09 21.165 6.07 21.213 6.033 21.247 C 5.996 21.282 5.948 21.301 5.897 21.301 L 4.496 21.301 C 4.445 21.301 4.396 21.282 4.359 21.247 C 4.323 21.213 4.302 21.166 4.302 21.116 L 4.302 3.11 C 4.302 3.062 4.322 3.013 4.359 2.979 C 4.396 2.944 4.444 2.925 4.495 2.925 Z M 9.229 4.662 L 7.829 4.662 C 7.779 4.662 7.73 4.681 7.694 4.715 C 7.657 4.749 7.636 4.796 7.635 4.846 L 7.635 22.668 C 7.635 22.716 7.657 22.764 7.694 22.799 C 7.73 22.834 7.779 22.853 7.829 22.853 L 9.229 22.853 C 9.28 22.853 9.33 22.834 9.367 22.799 C 9.402 22.765 9.423 22.718 9.423 22.668 L 9.423 4.846 C 9.423 4.797 9.402 4.75 9.367 4.715 C 9.329 4.68 9.28 4.661 9.229 4.662 Z M 11.162 7.433 L 12.543 7.433 C 12.593 7.432 12.642 7.452 12.679 7.487 C 12.715 7.52 12.736 7.568 12.737 7.617 L 12.737 22.022 C 12.737 22.071 12.715 22.118 12.679 22.153 C 12.642 22.187 12.593 22.207 12.543 22.207 L 11.162 22.207 C 11.111 22.207 11.063 22.187 11.026 22.153 C 10.989 22.119 10.968 22.072 10.968 22.022 L 10.968 7.617 C 10.968 7.568 10.989 7.521 11.026 7.487 C 11.063 7.452 11.111 7.433 11.162 7.433 Z M 15.876 9.923 L 14.477 9.923 C 14.426 9.923 14.377 9.942 14.34 9.977 C 14.304 10.011 14.283 10.058 14.283 10.108 L 14.283 23.682 C 14.283 23.731 14.303 23.778 14.34 23.813 C 14.377 23.847 14.425 23.866 14.476 23.866 L 15.876 23.866 C 15.928 23.866 15.977 23.847 16.013 23.813 C 16.049 23.779 16.07 23.731 16.07 23.682 L 16.07 10.108 C 16.07 10.059 16.05 10.012 16.013 9.977 C 15.976 9.942 15.927 9.923 15.876 9.923 Z M 29.207 23.962 L 27.808 23.962 C 27.757 23.961 27.708 23.942 27.671 23.907 C 27.635 23.873 27.614 23.826 27.613 23.777 L 27.613 0.617 C 27.612 0.567 27.632 0.519 27.669 0.485 C 27.706 0.449 27.756 0.431 27.808 0.433 L 29.207 0.433 C 29.258 0.431 29.308 0.45 29.346 0.485 C 29.382 0.519 29.402 0.567 29.401 0.617 L 29.401 23.777 C 29.401 23.825 29.381 23.873 29.344 23.907 C 29.307 23.942 29.259 23.961 29.208 23.962 Z M 24.475 21.283 L 25.874 21.283 C 25.925 21.283 25.974 21.263 26.011 21.229 C 26.047 21.195 26.068 21.148 26.069 21.098 L 26.069 3.091 C 26.07 3.042 26.05 2.994 26.013 2.96 C 25.976 2.924 25.926 2.905 25.874 2.907 L 24.474 2.907 C 24.423 2.906 24.373 2.925 24.335 2.96 C 24.299 2.994 24.279 3.042 24.28 3.091 L 24.28 21.098 C 24.28 21.147 24.3 21.194 24.337 21.229 C 24.374 21.263 24.423 21.283 24.473 21.283 Z M 22.542 22.853 L 21.142 22.853 C 21.091 22.852 21.043 22.833 21.006 22.799 C 20.97 22.765 20.949 22.718 20.948 22.668 L 20.948 4.846 C 20.948 4.797 20.969 4.75 21.006 4.715 C 21.043 4.681 21.091 4.662 21.142 4.662 L 22.541 4.662 C 22.592 4.662 22.642 4.681 22.679 4.715 C 22.715 4.75 22.735 4.797 22.735 4.846 L 22.735 22.668 C 22.735 22.716 22.716 22.764 22.679 22.799 C 22.642 22.834 22.592 22.853 22.541 22.853 Z M 17.809 22.205 L 19.209 22.205 C 19.26 22.205 19.31 22.186 19.345 22.151 C 19.382 22.117 19.402 22.07 19.403 22.02 L 19.403 7.614 C 19.403 7.566 19.382 7.518 19.345 7.484 C 19.309 7.449 19.26 7.43 19.21 7.43 L 17.809 7.43 C 17.758 7.43 17.709 7.449 17.672 7.484 C 17.636 7.518 17.615 7.565 17.615 7.614 L 17.615 22.02 C 17.615 22.068 17.636 22.116 17.672 22.151 C 17.709 22.186 17.758 22.205 17.809 22.205 Z" fill="currentColor"/></svg>
